SplineFontDB: 3.0
FontName: arkyakumono
FullName: arkyakumono
FamilyName: arkyakumono
Weight: Regular
Copyright: Copyright (c) 2014 by Douban (www.douban.com, read@douban.com). All rights reserved.
Version: 001.000
ItalicAngle: 0
UnderlinePosition: -418
UnderlineWidth: 48
Ascent: 1636
Descent: 412
sfntRevision: 0x00010000
woffMajor: 2
woffMinor: 0
LayerCount: 2
Layer: 0 0 "Back"  1
Layer: 1 0 "Fore"  0
XUID: [1021 996 -1823971058 15808111]
FSType: 0
OS2Version: 3
OS2_WeightWidthSlopeOnly: 0
OS2_UseTypoMetrics: 1
CreationTime: 1402927296
ModificationTime: 1403095551
PfmFamily: 17
TTFWeight: 400
TTFWidth: 5
LineGap: 0
VLineGap: 0
Panose: 0 0 0 0 0 0 0 0 0 0
OS2TypoAscent: 1760
OS2TypoAOffset: 0
OS2TypoDescent: -284
OS2TypoDOffset: 0
OS2TypoLinegap: -284
OS2WinAscent: 1760
OS2WinAOffset: 0
OS2WinDescent: 284
OS2WinDOffset: 0
HheadAscent: 1760
HheadAOffset: 0
HheadDescent: -284
HheadDOffset: 0
OS2SubXSize: 1328
OS2SubYSize: 1432
OS2SubXOff: 0
OS2SubYOff: 284
OS2SupXSize: 1328
OS2SupYSize: 1432
OS2SupXOff: 0
OS2SupYOff: 980
OS2StrikeYSize: 100
OS2StrikeYPos: 528
OS2Vendor: 'PfEd'
OS2CodePages: 003fffff.00000000
OS2UnicodeRanges: ffffffff.0001ffff.00000000.00000000
Lookup: 258 0 0 "'kern' Horizontal Kerning in Latin lookup 0"  {"'kern' Horizontal Kerning in Latin lookup 0-1" [76,7,4] } ['kern' ('DFLT' <'dflt' > 'latn' <'dflt' > ) ]
MarkAttachClasses: 1
DEI: 91125
LangName: 3081 "" "" "Regular" 
LangName: 1033 "" "" "" "arkyakumono" "" "Version 2.0" "" "" "" "" "A implement of mojikumi in a hack way through opentype ligature." 
Encoding: UnicodeBmp
UnicodeInterp: none
NameList: AGL For New Fonts
DisplaySize: -48
AntiAlias: 1
FitToEm: 1
WinInfo: 65263 17 5
BeginPrivate: 4
StdHW 5 [248]
StdVW 5 [248]
StemSnapH 9 [120 248]
StemSnapV 13 [104 120 248]
EndPrivate
TeXData: 1 0 0 346030 173015 115343 0 1048576 115343 783286 444596 497025 792723 393216 433062 380633 303038 157286 324010 404750 52429 2506097 1059062 262144
BeginChars: 65536 37

StartChar: u2014
Encoding: 8212 8212 0
Width: 2048
GlyphClass: 2
Flags: W
HStem: 688 92<180 1868>
LayerCount: 2
Fore
SplineSet
180 780 m 5
 1868 780 l 1
 1868 688 l 1
 180 688 l 5
 180 780 l 5
EndSplineSet
Validated: 1
EndChar

StartChar: u201C
Encoding: 8220 8220 3
Width: 1224
GlyphClass: 2
Flags: HMW
LayerCount: 2
Fore
SplineSet
1074 1514 m 5
 1057 1493 1057 1493 1037 1457 c 132
 1018 1421 1018 1421 1004 1377 c 132
 989 1333 989 1333 981 1284 c 132
 976.712890625 1258.27734375 974.72265625 1246.33886719 974.72265625 1233.56445312 c 4
 974.72265625 1222.50195312 976.215820312 1210.8125 979 1189 c 5
 1008 1202 1008 1202 1035 1200 c 132
 1061 1198 1061 1198 1081 1185 c 132
 1101 1172 1101 1172 1113 1150 c 132
 1124 1128 1124 1128 1124 1101 c 4
 1124 1044 1124 1044 1091 1013 c 132
 1058 982 1058 982 1011 982 c 4
 976 982 976 982 949 996 c 132
 922 1011 922 1011 904 1036 c 132
 885 1061 885 1061 876 1095 c 132
 866 1129 866 1129 866 1168 c 260
 866 1207 866 1207 877 1259 c 132
 888 1312 888 1312 908 1366 c 132
 928 1420 928 1420 956 1470 c 132
 984 1521 984 1521 1018 1555 c 5
 1074 1514 l 5
713 1514 m 5
 696 1493 696 1493 677 1457 c 132
 658 1421 658 1421 643 1377 c 132
 629 1333 629 1333 621 1284 c 132
 616.712890625 1258.27734375 614.72265625 1246.33886719 614.72265625 1233.56445312 c 4
 614.72265625 1222.50195312 616.215820312 1210.8125 619 1189 c 5
 648 1202 648 1202 674 1200 c 132
 701 1198 701 1198 721 1185 c 132
 741 1172 741 1172 752 1150 c 132
 764 1128 764 1128 764 1101 c 4
 764 1044 764 1044 731 1013 c 132
 698 982 698 982 651 982 c 4
 616 982 616 982 589 996 c 132
 562 1011 562 1011 543 1036 c 132
 525 1061 525 1061 515 1095 c 132
 506 1129 506 1129 506 1168 c 260
 506 1207 506 1207 517 1259 c 132
 528 1312 528 1312 548 1366 c 132
 568 1420 568 1420 596 1470 c 132
 624 1521 624 1521 658 1555 c 5
 713 1514 l 5
EndSplineSet
Validated: 1
EndChar

StartChar: comma
Encoding: 44 44 5
Width: 1024
Flags: W
HStem: -11 218<289.368 399.442>
VStem: 402.801 110.532<-184.507 34>
LayerCount: 2
Fore
SplineSet
306.333007812 -325 m 5
 317.333007812 -311 329.333007812 -292 342.333007812 -268 c 4
 355.333007812 -244 366.333007812 -217 376.333007812 -188 c 4
 385.333007812 -159 393.333007812 -128 398.333007812 -96 c 4
 401.24609375 -76.775390625 402.80078125 -57.8896484375 402.80078125 -39.3427734375 c 4
 402.80078125 -26.0546875 402.002929688 -12.9404296875 400.333007812 0 c 1
 381.333007812 -9 362.333007812 -12 344.333007812 -11 c 4
 327.333007812 -10 311.333007812 -5 298.333007812 4 c 4
 285.333007812 13 274.333007812 24 266.333007812 39 c 4
 259.333007812 54 255.333007812 70 255.333007812 88 c 4
 255.333007812 126 266.333007812 155 288.333007812 176 c 4
 310.333007812 197 337.333007812 207 368.333007812 207 c 4
 391.333007812 207 412.333007812 202 430.333007812 192 c 4
 448.333007812 183 463.333007812 170 476.333007812 153 c 4
 488.333007812 136 497.333007812 117 504.333007812 94 c 4
 510.333007812 71 513.333007812 47 513.333007812 21 c 260
 513.333007812 -5 509.333007812 -36 502.333007812 -70 c 4
 495.333007812 -106 484.333007812 -141 471.333007812 -177 c 4
 458.333007812 -213 442.333007812 -248 423.333007812 -282 c 4
 404.333007812 -315 384.333007812 -343 361.333007812 -366 c 5
 306.333007812 -325 l 5
EndSplineSet
Validated: 1
EndChar

StartChar: uni3001
Encoding: 12289 12289 6
Width: 2048
VWidth: 1000
Flags: W
HStem: -204.86 542.721
VStem: 253.428 518.145
LayerCount: 2
Fore
SplineSet
253.427734375 241.603515625 m 1
 359.923828125 337.860351562 l 1
 527.860351562 202.692382812 632.307617188 92.099609375 771.572265625 -96.31640625 c 1
 656.883789062 -204.860351562 l 1
 525.811523438 -14.396484375 407.028320312 114.627929688 253.427734375 241.603515625 c 1
EndSplineSet
Validated: 1
EndChar

StartChar: periodcentered
Encoding: 183 183 7
Width: 1000
VWidth: 1000
Flags: W
HStem: 298 164<477.5 522.5>
VStem: 418 164<357.5 402.5>
LayerCount: 2
Fore
SplineSet
500 462 m 0
 545 462 582 425 582 380 c 0
 582 335 545 298 500 298 c 0
 455 298 418 335 418 380 c 0
 418 425 455 462 500 462 c 0
EndSplineSet
Validated: 1
EndChar

StartChar: uni3014
Encoding: 12308 12308 8
Width: 2048
VWidth: 1000
Flags: W
VStem: 1288.09 139.265<39.6084 1182.39>
LayerCount: 2
Fore
SplineSet
1288.09179688 -3.400390625 m 1
 1288.09179688 1225.40039062 l 1
 1648.54003906 1555.12792969 l 1
 1834.90820312 1555.12792969 l 1
 1427.35644531 1182.39160156 l 1
 1427.35644531 39.6083984375 l 1
 1834.90820312 -333.127929688 l 1
 1648.54003906 -333.127929688 l 1
 1288.09179688 -3.400390625 l 1
EndSplineSet
Validated: 1
EndChar

StartChar: uni3015
Encoding: 12309 12309 9
Width: 2048
VWidth: 1000
Flags: W
VStem: 620.644 139.265<38.6084 1181.39>
LayerCount: 2
Fore
SplineSet
759.908203125 -4.400390625 m 5
 399.459960938 -334.127929688 l 5
 213.091796875 -334.127929688 l 5
 620.643554688 38.6083984375 l 5
 620.643554688 1181.39160156 l 5
 213.091796875 1554.12792969 l 5
 399.459960938 1554.12792969 l 5
 759.908203125 1224.40039062 l 5
 759.908203125 -4.400390625 l 5
EndSplineSet
Validated: 1
EndChar

StartChar: uni3016
Encoding: 12310 12310 10
Width: 2048
VWidth: 1000
Flags: W
HStem: -365.896 106.496<1215 1583.64> 1481.4 106.496<1215 1585.69>
VStem: 1104.41 110.592<-259.4 1481.4> 1374.75 112.64<176.937 1041.87>
LayerCount: 2
Fore
SplineSet
1104.41210938 -365.896484375 m 5
 1104.41210938 1587.89648438 l 5
 1794.58789062 1587.89648438 l 5
 1706.52441406 1475.25585938 1661.46777344 1401.52832031 1612.31640625 1288.88769531 c 4
 1528.34765625 1100.47167969 1487.38769531 877.240234375 1487.38769531 611 c 4
 1487.38769531 195.255859375 1579.54785156 -97.6083984375 1794.58789062 -365.896484375 c 5
 1104.41210938 -365.896484375 l 5
1215.00390625 -259.400390625 m 5
 1583.64355469 -259.400390625 l 5
 1438.23632812 -3.400390625 1374.74804688 256.696289062 1374.74804688 615.095703125 c 4
 1374.74804688 965.303710938 1436.18847656 1221.30371094 1585.69238281 1481.40039062 c 5
 1215.00390625 1481.40039062 l 5
 1215.00390625 -259.400390625 l 5
EndSplineSet
Validated: 1
EndChar

StartChar: uni3017
Encoding: 12311 12311 11
Width: 2048
VWidth: 1000
Flags: W
HStem: -367.896 106.496<464.356 832.996> 1479.4 106.496<462.308 832.996>
VStem: 560.612 112.64<173.907 1042.47> 832.996 110.592<-261.4 1479.4>
LayerCount: 2
Fore
SplineSet
943.587890625 -367.896484375 m 5
 253.412109375 -367.896484375 l 5
 468.452148438 -99.6083984375 560.612304688 191.208007812 560.612304688 609 c 4
 560.612304688 897.767578125 515.555664062 1125.09570312 417.251953125 1325.79980469 c 4
 370.1484375 1424.10351562 333.284179688 1483.49609375 253.412109375 1585.89648438 c 5
 943.587890625 1585.89648438 l 5
 943.587890625 -367.896484375 l 5
832.99609375 -261.400390625 m 5
 832.99609375 1479.40039062 l 5
 462.307617188 1479.40039062 l 5
 611.811523438 1219.30371094 673.251953125 965.3515625 673.251953125 611.047851562 c 4
 673.251953125 252.6484375 611.811523438 -5.400390625 464.356445312 -261.400390625 c 5
 832.99609375 -261.400390625 l 5
EndSplineSet
Validated: 1
EndChar

StartChar: uni300C
Encoding: 12300 12300 12
Width: 2048
VWidth: 1000
Flags: W
HStem: 1514.03 126.976<1391.4 1794.86>
VStem: 1252.14 139.265<573.996 1514.03>
LayerCount: 2
Fore
SplineSet
1391.40429688 573.99609375 m 5
 1252.13964844 573.99609375 l 5
 1252.13964844 1641.00390625 l 5
 1794.86035156 1641.00390625 l 5
 1794.86035156 1514.02832031 l 5
 1391.40429688 1514.02832031 l 5
 1391.40429688 573.99609375 l 5
EndSplineSet
Validated: 1
EndChar

StartChar: uni300D
Encoding: 12301 12301 13
Width: 2048
VWidth: 1000
Flags: W
HStem: -185.004 126.976<253.14 656.596>
VStem: 656.596 139.265<-58.0283 882.004>
LayerCount: 2
Fore
SplineSet
656.595703125 882.00390625 m 5
 795.860351562 882.00390625 l 5
 795.860351562 -185.00390625 l 5
 253.139648438 -185.00390625 l 5
 253.139648438 -58.0283203125 l 5
 656.595703125 -58.0283203125 l 5
 656.595703125 882.00390625 l 5
EndSplineSet
Validated: 1
EndChar

StartChar: uni300E
Encoding: 12302 12302 14
Width: 2048
VWidth: 1000
Flags: W
HStem: 427.84 108.544<1276.77 1377.12> 1324.86 104.447<1487.71 1723.23> 1531.71 104.448<1276.77 1723.23>
VStem: 1166.18 110.592<536.384 1531.71> 1377.12 110.592<536.384 1324.86> 1723.23 110.592<1429.31 1531.71>
LayerCount: 2
Fore
SplineSet
1487.71191406 427.83984375 m 5
 1166.17578125 427.83984375 l 5
 1166.17578125 1636.16015625 l 5
 1833.82421875 1636.16015625 l 5
 1833.82421875 1324.86425781 l 5
 1487.71191406 1324.86425781 l 5
 1487.71191406 427.83984375 l 5
1377.12011719 536.383789062 m 5
 1377.12011719 1429.31152344 l 5
 1723.23242188 1429.31152344 l 5
 1723.23242188 1531.71191406 l 5
 1276.76757812 1531.71191406 l 5
 1276.76757812 536.383789062 l 5
 1377.12011719 536.383789062 l 5
EndSplineSet
Validated: 1
EndChar

StartChar: uni300F
Encoding: 12303 12303 15
Width: 2048
VWidth: 1000
Flags: W
HStem: -235.636 104.447<324.768 771.232> -28.7881 104.448<324.768 560.288> 862.092 108.544<670.88 771.232>
VStem: 214.176 110.592<-131.188 -28.7881> 560.288 110.592<75.6602 862.092> 771.232 110.592<-131.188 862.092>
LayerCount: 2
Fore
SplineSet
560.288085938 970.635742188 m 5
 881.82421875 970.635742188 l 5
 881.82421875 -235.635742188 l 5
 214.17578125 -235.635742188 l 5
 214.17578125 75.66015625 l 5
 560.288085938 75.66015625 l 5
 560.288085938 970.635742188 l 5
670.879882812 862.091796875 m 5
 670.879882812 -28.7880859375 l 5
 324.767578125 -28.7880859375 l 5
 324.767578125 -131.188476562 l 5
 771.232421875 -131.188476562 l 5
 771.232421875 862.091796875 l 5
 670.879882812 862.091796875 l 5
EndSplineSet
Validated: 1
EndChar

StartChar: uni3010
Encoding: 12304 12304 16
Width: 2048
VWidth: 1000
Flags: W
VStem: 1275.81 221.185<174.047 1045.95>
LayerCount: 2
Fore
SplineSet
1275.80761719 -366.896484375 m 5
 1275.80761719 1586.89648438 l 5
 1804.19238281 1586.89648438 l 5
 1681.31152344 1421.0078125 1636.25585938 1341.13574219 1587.10351562 1205.96777344 c 4
 1525.6640625 1031.88769531 1496.9921875 841.423828125 1496.9921875 610 c 4
 1496.9921875 378.576171875 1525.6640625 188.112304688 1587.10351562 14.0322265625 c 4
 1636.25585938 -121.135742188 1681.31152344 -201.0078125 1804.19238281 -366.896484375 c 5
 1275.80761719 -366.896484375 l 5
EndSplineSet
Validated: 1
EndChar

StartChar: uni3011
Encoding: 12305 12305 17
Width: 2048
VWidth: 1000
Flags: W
VStem: 561.008 221.185<173.286 1046.71>
LayerCount: 2
Fore
SplineSet
782.192382812 -366.896484375 m 5
 253.807617188 -366.896484375 l 5
 376.688476562 -201.0078125 421.744140625 -121.135742188 470.896484375 14.0322265625 c 4
 532.3359375 188.112304688 561.0078125 374.48046875 561.0078125 610 c 4
 561.0078125 845.51953125 532.3359375 1031.88769531 470.896484375 1205.96777344 c 4
 421.744140625 1341.13574219 376.688476562 1421.0078125 253.807617188 1586.89648438 c 5
 782.192382812 1586.89648438 l 5
 782.192382812 -366.896484375 l 5
EndSplineSet
Validated: 1
EndChar

StartChar: uni3008
Encoding: 12296 12296 18
Width: 2048
VWidth: 1000
Flags: W
LayerCount: 2
Fore
SplineSet
1634.60839844 -341.127929688 m 5
 1081.6484375 603 l 5
 1634.60839844 1547.12792969 l 5
 1794.3515625 1547.12792969 l 5
 1241.39160156 603 l 5
 1794.3515625 -341.127929688 l 5
 1634.60839844 -341.127929688 l 5
EndSplineSet
Validated: 1
EndChar

StartChar: uni3009
Encoding: 12297 12297 19
Width: 2048
VWidth: 1000
Flags: W
LayerCount: 2
Fore
SplineSet
413.391601562 -332.127929688 m 5
 253.6484375 -332.127929688 l 5
 806.608398438 612 l 5
 253.6484375 1556.12792969 l 5
 413.391601562 1556.12792969 l 5
 966.3515625 612 l 5
 413.391601562 -332.127929688 l 5
EndSplineSet
Validated: 1
EndChar

StartChar: uni300A
Encoding: 12298 12298 20
Width: 2048
VWidth: 1000
Flags: W
LayerCount: 2
Fore
SplineSet
1217.11230469 610 m 5
 1661.52832031 1554.12792969 l 5
 1794.6484375 1554.12792969 l 5
 1348.18359375 610 l 5
 1794.6484375 -334.127929688 l 5
 1661.52832031 -334.127929688 l 5
 1217.11230469 610 l 5
971.3515625 610 m 5
 1417.81640625 1554.12792969 l 5
 1548.88769531 1554.12792969 l 5
 1102.42382812 610 l 5
 1548.88769531 -334.127929688 l 5
 1417.81640625 -334.127929688 l 5
 971.3515625 610 l 5
EndSplineSet
Validated: 1
EndChar

StartChar: uni300B
Encoding: 12299 12299 21
Width: 2048
VWidth: 1000
Flags: W
LayerCount: 2
Fore
SplineSet
830.887695312 615 m 5
 384.423828125 -329.127929688 l 5
 253.3515625 -329.127929688 l 5
 699.81640625 615 l 5
 253.3515625 1559.12792969 l 5
 384.423828125 1559.12792969 l 5
 830.887695312 615 l 5
1076.6484375 615 m 5
 630.18359375 -329.127929688 l 5
 499.112304688 -329.127929688 l 5
 943.528320312 615 l 5
 499.112304688 1559.12792969 l 5
 630.18359375 1559.12792969 l 5
 1076.6484375 615 l 5
EndSplineSet
Validated: 1
EndChar

StartChar: uniFF1A
Encoding: 65306 65306 23
Width: 2048
Flags: HW
HStem: 98 265<286.502 463.416> 923 265<286.502 463.416>
VStem: 255 239<128.002 332.026 953.002 1157.03>
LayerCount: 2
Fore
SplineSet
494 229 m 0
 494 211 491 194 484 178 c 0
 477 162 468 148 458 136 c 0
 446 124 434 115 420 108 c 0
 405 101 390 98 374 98 c 256
 358 98 343 101 328 108 c 0
 314 115 302 124 290 136 c 0
 280 148 271 162 264 178 c 0
 258 194 255 211 255 229 c 0
 255 248 258 265 265 282 c 0
 272 298 280 312 292 324 c 0
 302 336 315 346 330 352 c 0
 345 360 360 363 376 363 c 0
 393 363 408 360 422 352 c 0
 437 346 449 336 460 324 c 0
 471 312 479 298 485 282 c 0
 491 265 494 248 494 229 c 0
494 1054 m 0
 494 1036 491 1019 484 1003 c 0
 477 987 468 973 458 961 c 0
 446 949 434 940 420 933 c 0
 405 926 390 923 374 923 c 256
 358 923 343 926 328 933 c 0
 314 940 302 949 290 961 c 0
 280 973 271 987 264 1003 c 0
 258 1019 255 1036 255 1054 c 0
 255 1073 258 1090 265 1106 c 0
 272 1123 280 1137 292 1149 c 0
 302 1161 315 1170 330 1178 c 0
 345 1184 360 1188 376 1188 c 0
 393 1188 408 1184 422 1178 c 0
 437 1170 449 1161 460 1149 c 0
 471 1137 479 1123 485 1106 c 0
 491 1090 494 1073 494 1054 c 0
EndSplineSet
Validated: 1
EndChar

StartChar: uniFF1B
Encoding: 65307 65307 24
Width: 2048
Flags: HW
HStem: 127 218<289.035 399.109> 930 265<286.756 463.503>
VStem: 255 239<959.547 1164.59> 402.468 110.532<-46.5069 172>
LayerCount: 2
Fore
SplineSet
306 -187 m 1xd0
 317 -173 329 -154 342 -130 c 0
 355 -106 366 -79 376 -50 c 0
 385 -21 393 10 398 42 c 0
 401 61 402 80 402 99 c 0xd0
 402 112 402 125 400 138 c 1
 381 129 362 126 344 127 c 0
 327 128 311 133 298 142 c 0
 285 151 274 162 266 177 c 0
 259 192 255 208 255 226 c 0xe0
 255 264 266 293 288 314 c 0
 310 335 337 345 368 345 c 0
 391 345 412 340 430 330 c 0
 448 321 463 308 476 291 c 0
 488 274 497 255 504 232 c 0
 510 209 513 185 513 159 c 256
 513 133 509 102 502 68 c 0
 495 32 484 -3 471 -39 c 0
 458 -75 442 -110 423 -144 c 0
 404 -177 384 -205 361 -228 c 1
 306 -187 l 1xd0
494 1061 m 0xe0
 494 1043 491 1026 484 1010 c 0
 477 994 468 980 458 968 c 0
 446 956 434 947 420 940 c 0
 405 933 390 930 374 930 c 256
 358 930 343 933 328 940 c 0
 314 947 302 956 290 968 c 0
 280 980 271 994 264 1010 c 0
 258 1026 255 1043 255 1061 c 0
 255 1080 258 1097 265 1114 c 0
 272 1130 280 1144 292 1156 c 0
 302 1168 315 1178 330 1184 c 0
 345 1192 360 1195 376 1195 c 0
 393 1195 408 1192 422 1184 c 0
 437 1178 449 1168 460 1156 c 0
 471 1144 479 1130 485 1114 c 0
 491 1097 494 1080 494 1061 c 0xe0
EndSplineSet
Validated: 1
EndChar

StartChar: uniFF0E
Encoding: 65294 65294 25
Width: 2048
Flags: W
HStem: -33 265<285.502 462.416>
VStem: 254 239<-2.99801 201.026>
LayerCount: 2
Fore
SplineSet
493 98 m 4
 493 80 489.666992188 63 483 47 c 4
 476.333007812 31 467.5 17 456.5 5 c 4
 445.5 -7 432.833007812 -16.3330078125 418.5 -23 c 4
 404.166992188 -29.6669921875 389 -33 373 -33 c 260
 357 -33 341.833007812 -29.6669921875 327.5 -23 c 4
 313.166992188 -16.3330078125 300.5 -7 289.5 5 c 4
 278.5 17 269.833007812 31 263.5 47 c 4
 257.166992188 63 254 80 254 98 c 4
 254 116.666992188 257.333007812 134.166992188 264 150.5 c 4
 270.666992188 166.833007812 279.5 181 290.5 193 c 4
 301.5 205 314.333007812 214.5 329 221.5 c 4
 343.666992188 228.5 359 232 375 232 c 4
 391.666992188 232 407.166992188 228.5 421.5 221.5 c 4
 435.833007812 214.5 448.333007812 205 459 193 c 4
 469.666992188 181 478 166.833007812 484 150.5 c 4
 490 134.166992188 493 116.666992188 493 98 c 4
EndSplineSet
Validated: 1
EndChar

StartChar: uniFF0C
Encoding: 65292 65292 26
Width: 2048
Flags: W
HStem: -11 218<289.368 399.442>
VStem: 402.801 110.532<-184.507 34>
LayerCount: 2
Fore
SplineSet
306.333007812 -325 m 5
 317.333007812 -311 329.333007812 -292 342.333007812 -268 c 4
 355.333007812 -244 366.333007812 -217 376.333007812 -188 c 4
 385.333007812 -159 393.333007812 -128 398.333007812 -96 c 4
 401.24609375 -76.775390625 402.80078125 -57.8896484375 402.80078125 -39.3427734375 c 4
 402.80078125 -26.0546875 402.002929688 -12.9404296875 400.333007812 0 c 1
 381.333007812 -9 362.333007812 -12 344.333007812 -11 c 4
 327.333007812 -10 311.333007812 -5 298.333007812 4 c 4
 285.333007812 13 274.333007812 24 266.333007812 39 c 4
 259.333007812 54 255.333007812 70 255.333007812 88 c 4
 255.333007812 126 266.333007812 155 288.333007812 176 c 4
 310.333007812 197 337.333007812 207 368.333007812 207 c 4
 391.333007812 207 412.333007812 202 430.333007812 192 c 4
 448.333007812 183 463.333007812 170 476.333007812 153 c 4
 488.333007812 136 497.333007812 117 504.333007812 94 c 4
 510.333007812 71 513.333007812 47 513.333007812 21 c 260
 513.333007812 -5 509.333007812 -36 502.333007812 -70 c 4
 495.333007812 -106 484.333007812 -141 471.333007812 -177 c 4
 458.333007812 -213 442.333007812 -248 423.333007812 -282 c 4
 404.333007812 -315 384.333007812 -343 361.333007812 -366 c 5
 306.333007812 -325 l 5
EndSplineSet
Validated: 1
EndChar

StartChar: period
Encoding: 46 46 27
Width: 504
Flags: W
HStem: -33 265<162.502 339.416>
VStem: 131 239<-2.99805 201.026>
LayerCount: 2
Fore
SplineSet
370 98 m 0
 370 80 366.666666667 63 360 47 c 0
 353.333333333 31 344.5 17 333.5 5 c 0
 322.5 -7 309.833333333 -16.3333333333 295.5 -23 c 0
 281.166666667 -29.6666666667 266 -33 250 -33 c 256
 234 -33 218.833333333 -29.6666666667 204.5 -23 c 0
 190.166666667 -16.3333333333 177.5 -7 166.5 5 c 0
 155.5 17 146.833333333 31 140.5 47 c 0
 134.166666667 63 131 80 131 98 c 0
 131 116.666666667 134.333333333 134.166666667 141 150.5 c 0
 147.666666667 166.833333333 156.5 181 167.5 193 c 0
 178.5 205 191.333333333 214.5 206 221.5 c 0
 220.666666667 228.5 236 232 252 232 c 0
 268.666666667 232 284.166666667 228.5 298.5 221.5 c 0
 312.833333333 214.5 325.333333333 205 336 193 c 0
 346.666666667 181 355 166.833333333 361 150.5 c 0
 367 134.166666667 370 116.666666667 370 98 c 0
EndSplineSet
Validated: 1
EndChar

StartChar: colon
Encoding: 58 58 28
Width: 512
Flags: W
HStem: -33 265<168.502 345.416> 792 265<168.502 345.416>
VStem: 137 239<-2.99805 201.026 822.002 1026.03>
LayerCount: 2
Fore
SplineSet
376 98 m 0
 376 80 372.666666667 63 366 47 c 0
 359.333333333 31 350.5 17 339.5 5 c 0
 328.5 -7 315.833333333 -16.3333333333 301.5 -23 c 0
 287.166666667 -29.6666666667 272 -33 256 -33 c 256
 240 -33 224.833333333 -29.6666666667 210.5 -23 c 0
 196.166666667 -16.3333333333 183.5 -7 172.5 5 c 0
 161.5 17 152.833333333 31 146.5 47 c 0
 140.166666667 63 137 80 137 98 c 0
 137 116.666666667 140.333333333 134.166666667 147 150.5 c 0
 153.666666667 166.833333333 162.5 181 173.5 193 c 0
 184.5 205 197.333333333 214.5 212 221.5 c 0
 226.666666667 228.5 242 232 258 232 c 0
 274.666666667 232 290.166666667 228.5 304.5 221.5 c 0
 318.833333333 214.5 331.333333333 205 342 193 c 0
 352.666666667 181 361 166.833333333 367 150.5 c 0
 373 134.166666667 376 116.666666667 376 98 c 0
376 923 m 0
 376 905 372.666666667 888 366 872 c 0
 359.333333333 856 350.5 842 339.5 830 c 0
 328.5 818 315.833333333 808.666666667 301.5 802 c 0
 287.166666667 795.333333333 272 792 256 792 c 256
 240 792 224.833333333 795.333333333 210.5 802 c 0
 196.166666667 808.666666667 183.5 818 172.5 830 c 0
 161.5 842 152.833333333 856 146.5 872 c 0
 140.166666667 888 137 905 137 923 c 0
 137 941.666666667 140.333333333 959.166666667 147 975.5 c 0
 153.666666667 991.833333333 162.5 1006 173.5 1018 c 0
 184.5 1030 197.333333333 1039.5 212 1046.5 c 0
 226.666666667 1053.5 242 1057 258 1057 c 0
 274.666666667 1057 290.166666667 1053.5 304.5 1046.5 c 0
 318.833333333 1039.5 331.333333333 1030 342 1018 c 0
 352.666666667 1006 361 991.833333333 367 975.5 c 0
 373 959.166666667 376 941.666666667 376 923 c 0
EndSplineSet
Validated: 1
EndChar

StartChar: semicolon
Encoding: 59 59 29
Width: 539
Flags: W
HStem: -11 218<177.035 287.109> 792 265<174.756 351.503>
VStem: 143 239<821.547 1026.59> 290.468 110.532<-184.507 34>
LayerCount: 2
Fore
SplineSet
194 -325 m 1xd0
 205 -311 217 -292 230 -268 c 0
 243 -244 254 -217 264 -188 c 0
 273 -159 281 -128 286 -96 c 0
 288.912878475 -76.7750020665 290.468179188 -57.8893985733 290.468179188 -39.3431895204 c 0xd0
 290.468179188 -26.0545499632 289.66969722 -12.9401534564 288 0 c 1
 269 -9 250 -12 232 -11 c 0
 215 -10 199 -5 186 4 c 0
 173 13 162 24 154 39 c 0
 147 54 143 70 143 88 c 0xe0
 143 126 154 155 176 176 c 0
 198 197 225 207 256 207 c 0
 279 207 300 202 318 192 c 0
 336 183 351 170 364 153 c 0
 376 136 385 117 392 94 c 0
 398 71 401 47 401 21 c 256
 401 -5 397 -36 390 -70 c 0
 383 -106 372 -141 359 -177 c 0
 346 -213 330 -248 311 -282 c 0
 292 -315 272 -343 249 -366 c 1
 194 -325 l 1xd0
382 923 m 0xe0
 382 905 379 888 372 872 c 0
 365 856 356 842 346 830 c 0
 334 818 322 809 308 802 c 0
 293 795 278 792 262 792 c 256
 246 792 231 795 216 802 c 0
 202 809 190 818 178 830 c 0
 168 842 159 856 152 872 c 0
 146 888 143 905 143 923 c 0
 143 942 146 959 153 976 c 0
 160 992 168 1006 180 1018 c 0
 190 1030 203 1040 218 1046 c 0
 233 1054 248 1057 264 1057 c 0
 281 1057 296 1054 310 1046 c 0
 325 1040 337 1030 348 1018 c 0
 359 1006 367 992 373 976 c 0
 379 959 382 942 382 923 c 0xe0
EndSplineSet
Validated: 1
EndChar

StartChar: uniFF09
Encoding: 65289 65289 30
Width: 2048
Flags: W
VStem: 562 207<306.76 969.043>
LayerCount: 2
Fore
SplineSet
562 640 m 4
 562 832.666992188 536.833007812 1012 486.5 1178 c 4
 436.166992188 1344 358.333007812 1497 253 1637 c 5
 304 1684 l 5
 338 1652.66699219 373 1615.83300781 409 1573.5 c 4
 445 1531.16699219 480.166992188 1484 514.5 1432 c 4
 548.833007812 1380 581.5 1323.66699219 612.5 1263 c 4
 643.5 1202.33300781 670.5 1138.5 693.5 1071.5 c 4
 716.5 1004.5 734.833007812 934.833007812 748.5 862.5 c 4
 762.166992188 790.166992188 769 716 769 640 c 260
 769 564 762.166992188 489.333007812 748.5 416 c 4
 734.833007812 342.666992188 716.5 271.5 693.5 202.5 c 4
 670.5 133.5 643.5 67.8330078125 612.5 5.5 c 4
 581.5 -56.8330078125 548.833007812 -114.833007812 514.5 -168.5 c 4
 480.166992188 -222.166992188 445 -271 409 -315 c 4
 373 -359 338 -396.333007812 304 -427 c 5
 253 -380 l 5
 359 -238.666992188 437 -81.8330078125 487 90.5 c 4
 537 262.833007812 562 446 562 640 c 4
EndSplineSet
Validated: 1
EndChar

StartChar: uniFF08
Encoding: 65288 65288 31
Width: 2048
Flags: W
VStem: 1279 207<288.957 951.24>
LayerCount: 2
Fore
SplineSet
1486 618 m 4
 1486 425.333007812 1511.16699219 246 1561.5 80 c 4
 1611.83300781 -86 1689.66699219 -239 1795 -379 c 5
 1744 -426 l 5
 1710 -394.666992188 1675 -357.833007812 1639 -315.5 c 4
 1603 -273.166992188 1567.83300781 -226 1533.5 -174 c 4
 1499.16699219 -122 1466.5 -65.6669921875 1435.5 -5 c 4
 1404.5 55.6669921875 1377.5 119.5 1354.5 186.5 c 4
 1331.5 253.5 1313.16699219 323.166992188 1299.5 395.5 c 4
 1285.83300781 467.833007812 1279 542 1279 618 c 260
 1279 694 1285.83300781 768.666992188 1299.5 842 c 4
 1313.16699219 915.333007812 1331.5 986.5 1354.5 1055.5 c 4
 1377.5 1124.5 1404.5 1190.16699219 1435.5 1252.5 c 4
 1466.5 1314.83300781 1499.16699219 1372.83300781 1533.5 1426.5 c 4
 1567.83300781 1480.16699219 1603 1529 1639 1573 c 4
 1675 1617 1710 1654.33300781 1744 1685 c 5
 1795 1638 l 5
 1689 1496.66699219 1611 1339.83300781 1561 1167.5 c 4
 1511 995.166992188 1486 812 1486 618 c 4
EndSplineSet
Validated: 1
EndChar

StartChar: uni3002
Encoding: 12290 12290 32
Width: 2048
VWidth: 1000
Flags: W
HStem: -222.2 116.736<440.722 681.278> 275.464 116.736<440.722 681.278>
VStem: 253.8 116.736<-35.2784 205.278> 751.464 116.736<-35.2784 205.278>
LayerCount: 2
Fore
SplineSet
561 392.200195312 m 4
 730.984375 392.200195312 868.200195312 254.984375 868.200195312 85 c 4
 868.200195312 -84.984375 730.984375 -222.200195312 561 -222.200195312 c 4
 391.015625 -222.200195312 253.799804688 -84.984375 253.799804688 85 c 4
 253.799804688 254.984375 391.015625 392.200195312 561 392.200195312 c 4
561 275.463867188 m 4
 456.551757812 275.463867188 370.536132812 189.448242188 370.536132812 85 c 4
 370.536132812 -19.4482421875 456.551757812 -105.463867188 561 -105.463867188 c 4
 665.448242188 -105.463867188 751.463867188 -19.4482421875 751.463867188 85 c 4
 751.463867188 189.448242188 665.448242188 275.463867188 561 275.463867188 c 4
EndSplineSet
Validated: 1
EndChar

StartChar: uniFF3D
Encoding: 65341 65341 33
Width: 2048
Flags: W
HStem: -417 123<257 647> 1522 129<253 656>
VStem: 647 153<-288 1522>
LayerCount: 2
Fore
SplineSet
800 -417 m 5
 257 -417 l 5
 257 -294 l 5
 647 -288 l 5
 656 1522 l 5
 253 1528 l 5
 253 1651 l 5
 802 1651 l 5
 800 -417 l 5
EndSplineSet
Validated: 1
EndChar

StartChar: uniFF3B
Encoding: 65339 65339 34
Width: 2048
Flags: W
HStem: -421 129<1392 1795> 1524 123<1401 1791>
VStem: 1246 146<-292 1518>
LayerCount: 2
Fore
SplineSet
1248 1647 m 5
 1791 1647 l 5
 1791 1524 l 5
 1401 1518 l 5
 1392 -292 l 5
 1795 -298 l 5
 1795 -421 l 5
 1246 -421 l 5
 1248 1647 l 5
EndSplineSet
Validated: 1
EndChar

StartChar: uniFF1F
Encoding: 65311 65311 35
Width: 2048
VWidth: 1000
Flags: HW
HStem: 1.80371 192.513<477.5 676.156> 1459.98 137.216<432.211 824.223>
VStem: 82.2363 172.031<1185.38 1285.13> 477.5 198.656<1.80371 194.316> 495.932 161.792<387.061 672.294> 962.876 165.888<1061.59 1335.61>
LayerCount: 2
Fore
SplineSet
664 385 m 1xec
 488 385 l 1
 496 434 496 450 496 518 c 0
 496 624 518 692 572 766 c 0
 613 819 633 837 752 919 c 0
 826 968 860 997 893 1030 c 0
 938 1079 963 1136 963 1200 c 0
 963 1353 826 1460 633 1460 c 0
 500 1460 396 1415 328 1329 c 0
 293 1284 277 1247 254 1161 c 1
 82 1188 l 1
 125 1335 166 1407 250 1476 c 0
 342 1554 480 1597 639 1597 c 0
 928 1597 1129 1437 1129 1206 c 0
 1129 1120 1102 1042 1051 977 c 0
 1018 934 985 905 893 841 c 0
 774 755 740 727 711 686 c 0
 674 635 658 577 658 497 c 0
 658 463 660 432 664 385 c 1xec
478 194 m 1xf4
 676 194 l 1
 676 2 l 1
 478 2 l 1
 478 194 l 1xf4
EndSplineSet
Validated: 1
EndChar

StartChar: uniFF01
Encoding: 65281 65281 36
Width: 2048
VWidth: 1000
Flags: HWO
HStem: 0.759766 192.513<457.22 655.876>
VStem: 457.22 198.656<0.759766 193.272 967.414 1553.6> 485.892 139.265<386.033 1113.25>
LayerCount: 2
Fore
SplineSet
631 384 m 1xa0
 480 384 l 1
 484 431 486 474 486 505 c 0xa0
 486 511 484 548 484 603 c 2
 465 1332 l 2
 463 1418 461 1479 453 1557 c 1
 656 1557 l 1xc0
 650 1479 646 1418 644 1332 c 2
 627 603 l 1
 625 509 l 2
 625 472 627 433 631 384 c 1xa0
656 1 m 1xc0
 457 1 l 1
 457 193 l 1
 656 193 l 1
 656 1 l 1xc0
EndSplineSet
EndChar
